{
    "asset" : {
        "generator" : "Khronos glTF Blender I/O v1.6.16",
        "version" : "2.0"
    },
    "scene" : 0,
    "scenes" : [
        {
            "name" : "Scene",
            "nodes" : [
                0
            ]
        }
    ],
    "nodes" : [
        {
            "mesh" : 0,
            "name" : "Icosphere.003",
            "translation" : [
                0,
                0,
                -4.960899353027344
            ]
        }
    ],
    "materials" : [
        {
            "doubleSided" : true,
            "name" : "Material.009",
            "pbrMetallicRoughness" : {
                "baseColorTexture" : {
                    "index" : 0
                },
                "metallicFactor" : 0,
                "roughnessFactor" : 0.5
            }
        }
    ],
    "meshes" : [
        {
            "name" : "Icosphere.010",
            "primitives" : [
                {
                    "attributes" : {
                        "POSITION" : 0,
                        "NORMAL" : 1,
                        "TEXCOORD_0" : 2,
                        "TEXCOORD_1" : 3
                    },
                    "indices" : 4,
                    "material" : 0
                }
            ]
        }
    ],
    "textures" : [
        {
            "sampler" : 0,
            "source" : 0
        }
    ],
    "images" : [
        {
            "bufferView" : 5,
            "mimeType" : "image/png",
            "name" : "Baked"
        }
    ],
    "accessors" : [
        {
            "bufferView" : 0,
            "componentType" : 5126,
            "count" : 12149,
            "max" : [
                1.4084323644638062,
                1.6448407173156738,
                1.2839162349700928
            ],
            "min" : [
                -1.2964720726013184,
                -1.278563380241394,
                -1.2884224653244019
            ],
            "type" : "VEC3"
        },
        {
            "bufferView" : 1,
            "componentType" : 5126,
            "count" : 12149,
            "type" : "VEC3"
        },
        {
            "bufferView" : 2,
            "componentType" : 5126,
            "count" : 12149,
            "type" : "VEC2"
        },
        {
            "bufferView" : 3,
            "componentType" : 5126,
            "count" : 12149,
            "type" : "VEC2"
        },
        {
            "bufferView" : 4,
            "componentType" : 5123,
            "count" : 18114,
            "type" : "SCALAR"
        }
    ],
    "bufferViews" : [
        {
            "buffer" : 0,
            "byteLength" : 145788,
            "byteOffset" : 0
        },
        {
            "buffer" : 0,
            "byteLength" : 145788,
            "byteOffset" : 145788
        },
        {
            "buffer" : 0,
            "byteLength" : 97192,
            "byteOffset" : 291576
        },
        {
            "buffer" : 0,
            "byteLength" : 97192,
            "byteOffset" : 388768
        },
        {
            "buffer" : 0,
            "byteLength" : 36228,
            "byteOffset" : 485960
        },
        {
            "buffer" : 0,
            "byteLength" : 78020,
            "byteOffset" : 522188
        }
    ],
    "samplers" : [
        {
            "magFilter" : 9729,
            "minFilter" : 9987
        }
    ],
    "buffers" : [
        {
            "byteLength" : 600208,
            "uri" : "data:application/octet-stream;base64,"
        }
    ]
}
